<?xml version="1.0" encoding="UTF-8"?>
<svg xmlns="http://www.w3.org/2000/svg" width="150.47" height="163.16">
	<rect height="163.16" width="150.47" fill="none" clip-rule="evenodd" fill-rule="evenodd"/>
	<path d="m66.991 150.54h-0.057l-8.54-17.551h-4.734v25.198h4.191v-17.967h0.062l8.778 17.967h4.497v-25.198h-4.197v17.55zm-20.1-35.23l-3.875 13.473h2.393l0.757-2.774h4.01l0.698 2.774h2.463l-3.826-13.473h-2.62zm-0.122 8.37l1.39-5.327h0.035l1.344 5.327h-2.769zm-15.649-1.63c0-6.328-3.783-7.091-5.225-7.091-1.433 0-5.222 0.763-5.222 7.091 0 6.322 3.789 7.09 5.222 7.09 0.638 0 1.758-0.151 2.788-0.903l1.284 1.521 1.195-1.521-1.179-1.39c0.666-1.05 1.137-2.59 1.137-4.8zm-2.769 2.89l-1.152-1.336-1.163 1.525 1.09 1.271c-0.409 0.266-0.847 0.357-1.23 0.357-1.222 0-2.95-0.936-2.95-4.705 0-3.775 1.728-4.711 2.95-4.711 1.23 0 2.953 0.936 2.953 4.711-0.001 1.27-0.195 2.2-0.498 2.9zm26.444-9.63v13.473h7.669v-2.439h-5.397v-11.033h-2.272zm24.092 13.47h2.263v-13.473h-2.263v5.101h-4.243v-5.101h-2.271v13.473h2.271v-6.041h4.243v6.04zm-42.607 18.43h10.484v-4.462h-10.484v-5.3h11.414v-4.457h-15.822v25.198h16.333v-4.451h-11.925v-6.53zm-17.223-29.51v-2.385h-7.991v13.473h8.245v-2.386h-6.025v-3.488h5.3v-2.38h-5.3v-2.834h5.771zm-3.002 15.29h-4.492v25.198h15.192v-4.56h-10.7v-20.64zm16.82-17.68v8.93c0.027 1.352 0.254 2.444 0.846 3.267 0.971 1.33 2.453 1.633 3.451 1.633 2.742 0 4.465-1.52 4.465-5.067v-8.762h-2.315v8.875c0 1.634-0.638 2.569-2.193 2.569-1.057 0-1.938-0.827-1.938-2.699v-8.745h-2.316zm83.125 13.47h2.271v-13.473h-2.271v13.47zm24.19 23.73c0-4.711-0.963-5.479-2.731-6.393 2.129-0.844 3.329-3.229 3.329-6.004 0-2.174-1.052-7.123-6.771-7.123h-10.879v25.198h4.402v-9.865h4.648c3.321 0 3.505 1.336 3.505 4.775 0 2.597 0.179 3.899 0.476 5.09h4.979v-0.665c-0.97-0.44-0.97-1.35-0.97-5.03zm-7.37-8.43h-5.278v-6.738h5.606c2.636 0 3.145 1.963 3.145 3.299-0.01 2.5-1.14 3.44-3.48 3.44zm-22.82-17.27c-1.982 0-2.285-1.422-2.304-2.169h-2.175c0 1.666 0.679 4.5 4.646 4.5 0.952 0 4.281-0.356 4.281-4.413 0-2.418-1.363-3.169-2.848-3.618l-2.647-0.806c-0.454-0.136-1.146-0.357-1.146-1.406 0-1.217 1.025-1.612 1.891-1.612 1.981 0 2.166 1.423 2.226 2.023h2.177c-0.011-1.655-0.909-4.349-4.237-4.349-3.526 0-4.176 2.64-4.176 4.143 0 2.964 1.695 3.456 3.45 3.959l1.163 0.336c1.152 0.341 1.972 0.622 1.972 1.671 0.02 1.44-1.18 1.75-2.26 1.75zm19.13 1.97v-13.473h-2.12v9.384h-0.026l-4.316-9.384h-2.393v13.473h2.122v-9.605h0.027l4.435 9.605h2.27zm7.13-11.49c1.606 0 2.382 1.688 2.382 2.207h2.264c-0.116-1.855-1.434-4.532-4.762-4.532-3.667-0.021-5.316 3.45-5.316 7.128 0 4.722 2.374 7.053 4.994 7.053 1.982 0 2.82-1.222 3.392-2.05l0.227 1.693h1.518v-7.264h-4.543v2.271h2.525c-0.471 2.721-2.131 2.964-2.631 2.964-1.545 0-3.161-0.952-3.161-4.63 0-3.46 1.49-4.84 3.11-4.84zm-32.4 6.78v-8.762h-2.315v8.875c0 1.634-0.635 2.569-2.192 2.569-1.063 0-1.939-0.827-1.939-2.699v-8.745h-2.314v8.93c0.026 1.352 0.254 2.444 0.849 3.267 0.969 1.33 2.447 1.633 3.448 1.633 2.738 0.01 4.468-1.51 4.468-5.06zm1.69 23.14h10.489v-4.462h-10.489v-5.3h11.414v-4.457h-15.816v25.198h16.325v-4.451h-11.923v-6.53zm-12.209-25.16c0-6.328-3.789-7.091-5.223-7.091-1.441 0-5.224 0.763-5.224 7.091 0 6.322 3.782 7.09 5.224 7.09 1.434 0 5.223-0.77 5.223-7.09zm-8.174 0c0-3.775 1.728-4.711 2.952-4.711 1.223 0 2.951 0.936 2.951 4.711 0 3.77-1.729 4.705-2.951 4.705-1.225 0-2.952-0.94-2.952-4.71zm1.838 10.94h-9.498v25.198h9.322c7.098 0 8.926-7.794 8.926-13.196 0-4.77-1.495-12-8.75-12zm-0.719 20.85h-4.375v-16.495h4.318c1.917 0 4.94 0.595 4.94 8.036 0 4.15-1.23 8.46-4.883 8.46zm-11.399-150.49l-69.782 35.722v14.538l7.721 0.103v52.062h123.6l-0.065-52.164h8.308v-14.536l-69.783-35.722zm47.773 88.675h-96.083v-46.306l48.311-24.921 47.768 24.921v46.306zm-70.618-34.137h45.273v-12.504h-45.273v12.504zm0 22.488h45.07v-12.504h-45.07v12.504z" fill="#242020"/>
</svg>
